# xmcd
#
# Track frame offsets: 
#        182
#        14630
#        35145
#        50147
#        65042
#        88622
#        101097
#        108685
#        136370
#        147557
#        169965
#
# Disc length: 3193 seconds
#
# Revision: 1
# Processed by: cddbd v1.5.2PL0 Copyright (c) Steve Scherf et al.
# Submitted via: ExactAudioCopyFreeDBPlugin 1.0
#
DISCID=b10c770b
DTITLE=astroPERIL - astroPERIL
DYEAR=1996
DGENRE=Jazz
TTITLE0=western crisis - eastern solution
TTITLE1=countdown
TTITLE2=gameshow overture
TTITLE3=anna
TTITLE4=lying through your teeth
TTITLE5=prince planet and the surf walls
TTITLE6=minuteman 1
TTITLE7=DEF
TTITLE8=spiders from mars?
TTITLE9=astral projection and the minutemen
TTITLE10=poppies
EXTD=YEAR: 1996
EXTT0=
EXTT1=
EXTT2=
EXTT3=
EXTT4=
EXTT5=
EXTT6=
EXTT7=
EXTT8=
EXTT9=
EXTT10=
PLAYORDER=
